# xmcd
#
# Track frame offsets:
#	150
#	18608
#	35405
#	49974
#	65194
#	81623
#	97659
#	111372
#	125677
#	136420
#	156552
#	172477
#	188791
#	208172
#	224816
#	241946
#	259660
#	278847
#	296663
#	310125
#
# Disc length: 4342 seconds
#
# Revision: 0
# Processed by: cddbd v1.5.2PL0 Copyright (c) Steve Scherf et al.
# Submitted via: EasyCDDAExtractor 16.0.9.1
#
DISCID=4a10f414
DTITLE=Nu Urban Traxx Volume 223 US
DYEAR=2016
DGENRE=blues
TTITLE0=Yo Gotti ft. E-40 - Law
TTITLE1=Rae Sremmurd - By Chance
TTITLE2=Fat Joe and Remy Ma ft. French Montana - All The Way Up
TTITLE3=Miguel ft. Travi$ Scott - Waves [Remix]
TTITLE4=Future ft. The Weeknd - Low Life
TTITLE5=Zendaya ft. Chris Brown - Something New
TTITLE6=Young Dolph - Get Paid
TTITLE7=Alessia Cara - Wild Things
TTITLE8=DLOW - Do It Like Me
TTITLE9=Chris Brown ft. Usher and ZAYN - Back To Sleep [Remix]
TTITLE10=Bas - Housewives
TTITLE11=Andra Day - Rise Up
TTITLE12=Pleasure P. ft. Plies - Rock With You
TTITLE13=B. Smyth ft. Young Thug - Creep
TTITLE14=Desiigner - Panda [Mike Dean Master Radio Mix]
TTITLE15=SWV - MCE (Man Crush Everyday)
TTITLE16=Anderson .Paak ft. SchoolboyQ - Am I Wrong
TTITLE17=Lil Cray - Kyrie Irving
TTITLE18=CeeLo Green - Working Class Heroes (Work)
TTITLE19=Tessanne Chin - Love Suicide
EXTD=
EXTT0=
EXTT1=
EXTT2=
EXTT3=
EXTT4=
EXTT5=
EXTT6=
EXTT7=
EXTT8=
EXTT9=
EXTT10=
EXTT11=
EXTT12=
EXTT13=
EXTT14=
EXTT15=
EXTT16=
EXTT17=
EXTT18=
EXTT19=
PLAYORDER=
